<svg width="16" height="21" viewBox="0 0 16 21" fill="none" xmlns="http://www.w3.org/2000/svg">
<path d="M12.9995 20.1424H3.00055C2.47015 20.1418 1.96164 19.9308 1.58659 19.5558C1.2116 19.1808 1.00065 18.6724 1 18.1421V3.14265C1.00065 2.61235 1.2116 2.10394 1.58659 1.72895C1.96157 1.35396 2.46998 1.14301 3.00029 1.14236H12.9997C13.53 1.14301 14.0384 1.35396 14.4134 1.72895C14.7885 2.104 14.9994 2.61251 15 3.14291V18.1418C14.9994 18.6722 14.7885 19.1807 14.4134 19.5558C14.0384 19.9308 13.5299 20.1418 12.9995 20.1424ZM3 1.39236C2.53587 1.39236 2.09075 1.57674 1.76256 1.90493C1.43437 2.23312 1.25 2.67824 1.25 3.14236V18.1424C1.25 18.6065 1.43437 19.0516 1.76256 19.3798C2.09075 19.708 2.53587 19.8924 3 19.8924H13C13.4641 19.8924 13.9092 19.708 14.2374 19.3798C14.5656 19.0516 14.75 18.6065 14.75 18.1424V3.14236C14.75 2.67824 14.5656 2.23312 14.2374 1.90493C13.9092 1.57674 13.4641 1.39236 13 1.39236H3ZM3 18.2674C2.96685 18.2674 2.93505 18.2542 2.91161 18.2308C2.88817 18.2073 2.875 18.1755 2.875 18.1424V3.14236C2.875 3.10921 2.88817 3.07742 2.91161 3.05398C2.93505 3.03053 2.96685 3.01736 3 3.01736H13C13.0332 3.01736 13.0649 3.03053 13.0884 3.05398C13.1118 3.07742 13.125 3.10921 13.125 3.14236V18.1424C13.125 18.1755 13.1118 18.2073 13.0884 18.2308C13.0649 18.2542 13.0332 18.2674 13 18.2674H3Z" fill="#CAB3FF" stroke="#CAB3FF"/>
</svg>
